<?xml version="1.0" standalone="no"?>
<!DOCTYPE svg PUBLIC "-//W3C//DTD SVG 20010904//EN"
 "http://www.w3.org/TR/2001/REC-SVG-20010904/DTD/svg10.dtd">
<svg version="1.0" xmlns="http://www.w3.org/2000/svg"
 width="16.000000pt" height="16.000000pt" viewBox="0 0 16.000000 16.000000"
 preserveAspectRatio="xMidYMid meet">
<metadata>
Created by potrace 1.11, written by Peter Selinger 2001-2013
</metadata>
<g transform="translate(0.000000,16.000000) scale(0.004000,-0.004000)"
fill="#000000" stroke="none">
<path d="M1740 3655 c-708 -97 -1207 -562 -1358 -1264 -25 -118 -26 -142 -26
-386 0 -244 1 -268 26 -386 108 -502 385 -880 808 -1098 206 -107 409 -162
668 -181 243 -18 499 10 714 80 101 33 263 108 343 158 l49 31 101 -97 c114
-111 150 -132 228 -132 109 0 202 97 201 210 0 73 -18 105 -124 214 l-88 91
68 94 c151 210 256 485 290 761 15 122 12 417 -5 537 -52 369 -198 668 -449
919 -257 256 -553 399 -935 449 -130 18 -383 18 -511 0z m459 -391 c458 -67
821 -374 970 -820 48 -144 65 -257 65 -444 0 -178 -14 -276 -60 -424 -30 -96
-111 -262 -160 -330 l-36 -48 -231 230 c-221 218 -234 230 -282 240 -164 35
-307 -124 -250 -275 15 -39 60 -90 232 -264 163 -165 211 -218 201 -226 -31
-25 -180 -93 -256 -117 -127 -40 -240 -56 -392 -56 -323 0 -580 94 -819 300
-372 320 -516 910 -346 1417 194 580 742 909 1364 817z"/>
</g>
</svg>
